<svg xmlns="http://www.w3.org/2000/svg" viewBox="0 0 130 87">
  <path fill="#FFF" fill-rule="evenodd" d="M125.4644,14.0722 C122.9274,14.0722 121.0114,14.0922 119.7164,14.1322 L119.7164,13.7352 C120.1934,13.7092 120.5394,13.6562 120.7574,13.5772 C120.9754,13.4982 121.1244,13.3452 121.2034,13.1212 C121.2824,12.8962 121.3214,12.5332 121.3214,12.0312 L121.3214,2.1992 C121.3214,1.6972 121.2824,1.3342 121.2034,1.1092 C121.1244,0.8842 120.9754,0.7332 120.7574,0.6532 C120.5394,0.5742 120.1934,0.5212 119.7164,0.4952 L119.7164,0.0982 C121.0114,0.1382 122.9274,0.1582 125.4644,0.1582 C127.4074,0.1582 128.7874,0.1382 129.6074,0.0982 C129.5154,0.9702 129.4684,1.7512 129.4684,2.4372 C129.4684,2.9532 129.4884,3.3622 129.5274,3.6662 L129.0714,3.6662 C128.9804,2.8072 128.8604,2.1702 128.7154,1.7542 C128.5694,1.3382 128.3254,1.0332 127.9824,0.8422 C127.6384,0.6502 127.1164,0.5542 126.4164,0.5542 L124.7714,0.5542 C124.2954,0.5542 123.9484,0.5912 123.7314,0.6632 C123.5124,0.7362 123.3634,0.8842 123.2844,1.1092 C123.2054,1.3342 123.1654,1.6972 123.1654,2.1992 L123.1654,6.8772 L124.4744,6.8772 C124.9364,6.8772 125.2924,6.7682 125.5444,6.5512 C125.7954,6.3322 125.9634,6.0742 126.0494,5.7772 C126.1354,5.4802 126.2044,5.1062 126.2574,4.6572 L126.3174,4.2602 L126.7734,4.2602 C126.7334,4.8162 126.7134,5.4372 126.7134,6.1242 L126.7134,7.0752 C126.7134,7.7502 126.7534,8.6872 126.8324,9.8902 L126.3764,9.8902 C126.3624,9.7982 126.3234,9.4772 126.2574,8.9282 C126.1914,8.3812 126.0104,7.9682 125.7124,7.6902 C125.4154,7.4122 125.0024,7.2732 124.4744,7.2732 L123.1654,7.2732 L123.1654,12.0312 C123.1654,12.5332 123.2054,12.8962 123.2844,13.1212 C123.3634,13.3452 123.5124,13.4942 123.7314,13.5672 C123.9484,13.6392 124.2954,13.6762 124.7714,13.6762 L126.2184,13.6762 C127.0374,13.6762 127.6614,13.5672 128.0914,13.3482 C128.5204,13.1312 128.8344,12.7812 129.0324,12.2992 C129.2314,11.8162 129.3764,11.1062 129.4684,10.1682 L129.9244,10.1682 C129.8854,10.5242 129.8644,11.0002 129.8644,11.5942 C129.8644,12.3472 129.9114,13.1932 130.0034,14.1322 C129.1054,14.0922 127.5924,14.0722 125.4644,14.0722 L125.4644,14.0722 Z M108.3394,2.1992 C108.3394,1.7232 108.3794,1.3672 108.4584,1.1292 C108.5374,0.8912 108.6794,0.7262 108.8844,0.6342 C109.0894,0.5422 109.3964,0.4952 109.8064,0.4952 C110.9694,0.4952 111.8084,0.7722 112.3234,1.3272 C112.8384,1.8832 113.0964,2.7022 113.0964,3.7852 C113.0964,4.8162 112.8524,5.6222 112.3624,6.2032 C111.8744,6.7852 110.9764,7.0752 109.6674,7.0752 L108.3394,7.0752 L108.3394,2.1992 Z M109.9444,14.1322 L109.9444,13.7352 C109.4694,13.7092 109.1224,13.6562 108.9044,13.5772 C108.6864,13.4982 108.5374,13.3452 108.4584,13.1212 C108.3794,12.8962 108.3394,12.5332 108.3394,12.0312 L108.3394,7.4712 L110.2224,7.4712 C110.7244,7.4712 111.1144,7.5842 111.3924,7.8082 C111.6694,8.0342 111.8774,8.3312 112.0164,8.7012 C112.1544,9.0712 112.3034,9.5992 112.4624,10.2862 L112.8984,12.2682 C113.0694,13.0612 113.3304,13.6162 113.6814,13.9332 C114.0304,14.2512 114.4774,14.4092 115.0194,14.4092 C115.5214,14.4092 115.9244,14.3102 116.2284,14.1122 C116.5314,13.9142 116.8354,13.5902 117.1404,13.1402 L116.8424,12.9232 C116.6444,13.1872 116.4694,13.3792 116.3174,13.4982 C116.1654,13.6162 115.9774,13.6762 115.7524,13.6762 C115.5014,13.6762 115.3034,13.5562 115.1574,13.3192 C115.0124,13.0812 114.8734,12.6582 114.7414,12.0512 L114.2454,10.0292 C114.0614,9.1962 113.7704,8.5892 113.3734,8.2052 C112.9774,7.8222 112.3434,7.5582 111.4714,7.4122 L111.2334,7.3732 C112.1574,7.2272 112.9074,6.9462 113.4834,6.5302 C114.0584,6.1142 114.4674,5.6452 114.7114,5.1232 C114.9564,4.6012 115.0784,4.0832 115.0784,3.5672 C115.0784,2.5502 114.6654,1.7202 113.8394,1.0802 C113.0144,0.4392 111.8344,0.1182 110.3014,0.1182 C109.9854,0.1182 109.7004,0.1252 109.4494,0.1382 L107.3094,0.1582 C106.2514,0.1582 105.4454,0.1382 104.8904,0.0982 L104.8904,0.4952 C105.3664,0.5212 105.7134,0.5742 105.9314,0.6532 C106.1494,0.7332 106.2984,0.8842 106.3774,1.1092 C106.4564,1.3342 106.4954,1.6972 106.4954,2.1992 L106.4954,12.0312 C106.4954,12.5332 106.4564,12.8962 106.3774,13.1212 C106.2984,13.3452 106.1494,13.4982 105.9314,13.5772 C105.7134,13.6562 105.3664,13.7092 104.8904,13.7352 L104.8904,14.1322 C105.4454,14.0922 106.2914,14.0722 107.4274,14.0722 C108.4974,14.0722 109.3374,14.0922 109.9444,14.1322 L109.9444,14.1322 Z M90.1344,0.6532 C89.9154,0.5742 89.5684,0.5212 89.0934,0.4952 L89.0934,0.0982 C89.6484,0.1382 90.4934,0.1582 91.6304,0.1582 C92.7004,0.1582 93.5394,0.1382 94.1484,0.0982 L94.1484,0.4952 C93.6724,0.5212 93.3244,0.5742 93.1074,0.6532 C92.8894,0.7332 92.7404,0.8842 92.6604,1.1092 C92.5814,1.3342 92.5424,1.6972 92.5424,2.1992 L92.5424,8.7602 C92.5424,9.8172 92.6144,10.6962 92.7604,11.3962 C92.9054,12.0962 93.2064,12.6582 93.6614,13.0812 C94.1174,13.5042 94.7884,13.7162 95.6734,13.7162 C97.0744,13.7162 98.0594,13.2662 98.6274,12.3682 C99.1944,11.4692 99.4794,10.2072 99.4794,8.5822 L99.4794,2.3972 C99.4794,1.6842 99.3504,1.1952 99.0934,0.9302 C98.8354,0.6672 98.3624,0.5212 97.6754,0.4952 L97.6754,0.0982 C98.1524,0.1382 98.8254,0.1582 99.6974,0.1582 C100.4904,0.1582 101.1054,0.1382 101.5404,0.0982 L101.5404,0.4952 C101.0774,0.5212 100.7354,0.5912 100.5104,0.7032 C100.2854,0.8152 100.1334,1.0012 100.0544,1.2582 C99.9754,1.5152 99.9354,1.8952 99.9354,2.3972 L99.9354,8.3642 C99.9354,9.3152 99.8724,10.1322 99.7464,10.8112 C99.6214,11.4922 99.4134,12.0772 99.1224,12.5662 C98.7924,13.1352 98.3064,13.5842 97.6654,13.9142 C97.0254,14.2442 96.3014,14.4092 95.4954,14.4092 C94.0414,14.4092 92.9324,14.0522 92.1654,13.3392 C91.5834,12.7972 91.1934,12.1822 90.9954,11.4962 C90.7984,10.8082 90.6984,9.7842 90.6984,8.4242 L90.6984,2.1992 C90.6984,1.6972 90.6584,1.3342 90.5794,1.1092 C90.5004,0.8842 90.3524,0.7332 90.1344,0.6532 L90.1344,0.6532 Z M74.9824,2.6352 C74.9824,1.8832 74.9354,1.0372 74.8434,0.0982 C75.9404,0.1382 77.8024,0.1582 80.4324,0.1582 C83.0484,0.1582 84.9044,0.1382 86.0024,0.0982 C85.9094,1.0372 85.8624,1.8832 85.8624,2.6352 C85.8624,3.2972 85.8834,3.8382 85.9224,4.2602 L85.4674,4.2602 C85.3604,3.2442 85.2294,2.4872 85.0704,1.9912 C84.9114,1.4962 84.6344,1.1332 84.2374,0.9012 C83.8414,0.6702 83.2344,0.5542 82.4144,0.5542 L81.3444,0.5542 L81.3444,11.8332 C81.3444,12.3872 81.3974,12.7912 81.5024,13.0422 C81.6084,13.2932 81.7934,13.4652 82.0584,13.5562 C82.3214,13.6492 82.7514,13.7092 83.3464,13.7352 L83.3464,14.1322 C82.6584,14.0922 81.6884,14.0722 80.4324,14.0722 C79.1104,14.0722 78.1334,14.0922 77.4984,14.1322 L77.4984,13.7352 C78.0934,13.7092 78.5234,13.6492 78.7874,13.5562 C79.0514,13.4652 79.2354,13.2932 79.3424,13.0422 C79.4474,12.7912 79.5004,12.3872 79.5004,11.8332 L79.5004,0.5542 L78.4304,0.5542 C77.6104,0.5542 77.0034,0.6702 76.6074,0.9012 C76.2104,1.1332 75.9334,1.4962 75.7754,1.9912 C75.6154,2.4872 75.4844,3.2442 75.3784,4.2602 L74.9224,4.2602 C74.9614,3.8382 74.9824,3.2972 74.9824,2.6352 L74.9824,2.6352 Z M60.9874,14.0722 C60.1944,14.0722 59.5804,14.0922 59.1444,14.1322 L59.1444,13.7352 C59.6074,13.7092 59.9504,13.6392 60.1754,13.5272 C60.4004,13.4152 60.5524,13.2302 60.6314,12.9722 C60.7104,12.7152 60.7494,12.3352 60.7494,11.8332 L60.7494,2.1992 C60.7494,1.6972 60.7104,1.3342 60.6314,1.1092 C60.5524,0.8842 60.4024,0.7332 60.1854,0.6532 C59.9674,0.5742 59.6204,0.5212 59.1444,0.4952 L59.1444,0.0982 C59.5804,0.1382 60.1944,0.1582 60.9874,0.1582 C61.5824,0.1582 62.0984,0.1382 62.5334,0.0982 L69.5304,10.8812 L69.5304,2.3972 C69.5304,1.8832 69.4874,1.4992 69.4014,1.2482 C69.3164,0.9972 69.1474,0.8152 68.8964,0.7032 C68.6454,0.5912 68.2554,0.5212 67.7274,0.4952 L67.7274,0.0982 C68.2024,0.1382 68.8764,0.1582 69.7484,0.1582 C70.5414,0.1582 71.1554,0.1382 71.5924,0.0982 L71.5924,0.4952 C71.1294,0.5212 70.7854,0.5912 70.5614,0.7032 C70.3364,0.8152 70.1854,1.0012 70.1054,1.2582 C70.0264,1.5152 69.9864,1.8952 69.9864,2.3972 L69.9864,14.2302 L69.5304,14.2302 L61.2054,1.3672 L61.2054,11.8332 C61.2054,12.3472 61.2484,12.7312 61.3344,12.9822 C61.4204,13.2332 61.5894,13.4152 61.8404,13.5272 C62.0914,13.6392 62.4814,13.7092 63.0094,13.7352 L63.0094,14.1322 C62.5334,14.0922 61.8604,14.0722 60.9874,14.0722 L60.9874,14.0722 Z M50.8394,14.0722 C48.3024,14.0722 46.3864,14.0922 45.0914,14.1322 L45.0914,13.7352 C45.5674,13.7092 45.9144,13.6562 46.1324,13.5772 C46.3504,13.4982 46.4994,13.3452 46.5784,13.1212 C46.6574,12.8962 46.6974,12.5332 46.6974,12.0312 L46.6974,2.1992 C46.6974,1.6972 46.6574,1.3342 46.5784,1.1092 C46.4994,0.8842 46.3504,0.7332 46.1324,0.6532 C45.9144,0.5742 45.5674,0.5212 45.0914,0.4952 L45.0914,0.0982 C46.3864,0.1382 48.3024,0.1582 50.8394,0.1582 C52.7824,0.1582 54.1634,0.1382 54.9824,0.0982 C54.8894,0.9702 54.8434,1.7512 54.8434,2.4372 C54.8434,2.9532 54.8634,3.3622 54.9034,3.6662 L54.4474,3.6662 C54.3544,2.8072 54.2354,2.1702 54.0904,1.7542 C53.9444,1.3382 53.7004,1.0332 53.3574,0.8422 C53.0134,0.6502 52.4914,0.5542 51.7914,0.5542 L50.1464,0.5542 C49.6704,0.5542 49.3234,0.5912 49.1054,0.6632 C48.8874,0.7362 48.7384,0.8842 48.6594,1.1092 C48.5804,1.3342 48.5404,1.6972 48.5404,2.1992 L48.5404,6.8772 L49.8484,6.8772 C50.3114,6.8772 50.6684,6.7682 50.9194,6.5512 C51.1704,6.3322 51.3384,6.0742 51.4244,5.7772 C51.5104,5.4802 51.5794,5.1062 51.6324,4.6572 L51.6924,4.2602 L52.1484,4.2602 C52.1084,4.8162 52.0884,5.4372 52.0884,6.1242 L52.0884,7.0752 C52.0884,7.7502 52.1284,8.6872 52.2074,9.8902 L51.7514,9.8902 C51.7384,9.7982 51.6984,9.4772 51.6324,8.9282 C51.5664,8.3812 51.3844,7.9682 51.0874,7.6902 C50.7904,7.4122 50.3774,7.2732 49.8484,7.2732 L48.5404,7.2732 L48.5404,12.0312 C48.5404,12.5332 48.5804,12.8962 48.6594,13.1212 C48.7384,13.3452 48.8874,13.4942 49.1054,13.5672 C49.3234,13.6392 49.6704,13.6762 50.1464,13.6762 L51.5924,13.6762 C52.4124,13.6762 53.0364,13.5672 53.4664,13.3482 C53.8954,13.1312 54.2094,12.7812 54.4074,12.2992 C54.6064,11.8162 54.7514,11.1062 54.8434,10.1682 L55.2994,10.1682 C55.2594,10.5242 55.2404,11.0002 55.2404,11.5942 C55.2404,12.3472 55.2864,13.1932 55.3794,14.1322 C54.4804,14.0922 52.9674,14.0722 50.8394,14.0722 L50.8394,14.0722 Z M29.6914,0.4952 L29.6914,0.0982 C30.2194,0.1382 30.9264,0.1582 31.8124,0.1582 C32.9484,0.1582 33.7944,0.1382 34.3494,0.0982 L34.3494,0.4952 C33.8464,0.5212 33.4864,0.5842 33.2694,0.6832 C33.0504,0.7822 32.9424,0.9642 32.9424,1.2282 C32.9424,1.4532 33.0214,1.7632 33.1794,2.1602 L36.7674,11.6942 L39.9984,3.3092 C40.2624,2.5952 40.3944,2.0542 40.3944,1.6842 C40.3944,1.2752 40.2524,0.9772 39.9684,0.7922 C39.6844,0.6072 39.2514,0.5092 38.6704,0.4952 L38.6704,0.0982 C39.4234,0.1382 40.1834,0.1582 40.9494,0.1582 C41.5444,0.1582 42.0394,0.1382 42.4364,0.0982 L42.4364,0.4952 C41.7754,0.6532 41.2534,1.2282 40.8704,2.2192 L36.2124,14.2302 L36.0534,14.2302 L35.8954,14.2302 L31.0584,1.7632 C30.7414,0.9442 30.2854,0.5212 29.6914,0.4952 L29.6914,0.4952 Z M18.4924,2.1602 C18.4924,1.6842 18.5324,1.3272 18.6114,1.0902 C18.6914,0.8512 18.8334,0.6862 19.0374,0.5932 C19.2424,0.5022 19.5494,0.4552 19.9594,0.4552 C21.3204,0.4552 22.4004,0.6932 23.2004,1.1692 C23.9994,1.6442 24.5774,2.3612 24.9344,3.3192 C25.2914,4.2772 25.4694,5.5162 25.4694,7.0362 C25.4694,8.5552 25.3074,9.8042 24.9844,10.7822 C24.6604,11.7592 24.0954,12.5042 23.2894,13.0112 C22.4834,13.5202 21.3804,13.7752 19.9794,13.7752 C19.5564,13.7752 19.2424,13.7282 19.0374,13.6362 C18.8334,13.5442 18.6914,13.3792 18.6114,13.1402 C18.5324,12.9032 18.4924,12.5462 18.4924,12.0702 L18.4924,2.1602 Z M19.1274,14.1122 L20.2764,14.1322 C21.7694,14.1322 23.0544,13.8382 24.1314,13.2502 C25.2084,12.6622 26.0314,11.8262 26.5994,10.7422 C27.1674,9.6592 27.4514,8.3972 27.4514,6.9572 C27.4514,4.7232 26.8704,3.0222 25.7074,1.8522 C24.5444,0.6832 22.7944,0.0982 20.4554,0.0982 C20.1514,0.0982 19.5494,0.1122 18.6514,0.1382 L16.9664,0.1582 C16.1474,0.1582 15.5064,0.1382 15.0444,0.0982 L15.0444,0.4952 C15.5194,0.5212 15.8664,0.5742 16.0844,0.6532 C16.3024,0.7332 16.4514,0.8842 16.5304,1.1092 C16.6104,1.3342 16.6494,1.6972 16.6494,2.1992 L16.6494,12.0312 C16.6494,12.5332 16.6104,12.8962 16.5304,13.1212 C16.4514,13.3452 16.3024,13.4982 16.0844,13.5772 C15.8664,13.6562 15.5194,13.7092 15.0444,13.7352 L15.0444,14.1322 C15.5994,14.0922 16.4184,14.0722 17.5014,14.0722 C17.8454,14.0722 18.3864,14.0862 19.1274,14.1122 L19.1274,14.1122 Z M5.6684,2.4972 L7.8884,8.4242 L3.4094,8.4242 L5.6684,2.4972 Z M3.7664,14.1322 L3.7664,13.7352 C3.1844,13.7222 2.7514,13.6232 2.4674,13.4382 C2.1834,13.2532 2.0414,12.9562 2.0414,12.5462 C2.0414,12.1762 2.1734,11.6342 2.4384,10.9212 L3.2504,8.8202 L8.0474,8.8202 L9.2564,12.0702 C9.4154,12.4672 9.4944,12.7772 9.4944,13.0022 C9.4944,13.2662 9.3854,13.4482 9.1674,13.5472 C8.9494,13.6462 8.5894,13.7092 8.0874,13.7352 L8.0874,14.1322 C8.6414,14.0922 9.4874,14.0722 10.6244,14.0722 C11.5094,14.0722 12.2164,14.0922 12.7444,14.1322 L12.7444,13.7352 C12.1504,13.7092 11.6944,13.2862 11.3774,12.4672 L6.5414,0.0002 L6.2234,0.0002 L1.5664,12.0102 C1.1824,13.0022 0.6604,13.5772 0.0004,13.7352 L0.0004,14.1322 C0.3964,14.0922 0.8924,14.0722 1.4864,14.0722 C2.2534,14.0722 3.0124,14.0922 3.7664,14.1322 L3.7664,14.1322 Z M121.9854,20.5902 C124.7564,20.5902 127.1494,20.4952 129.1654,20.3052 L129.1654,22.1952 C127.9044,22.3222 126.7874,22.8892 125.8124,23.8962 C124.8344,24.9042 123.9054,26.5412 123.0254,28.8082 L107.5294,69.4342 L104.3184,77.6542 C103.1204,80.7392 101.7674,82.9442 100.2554,84.2672 C99.3114,85.1482 98.1774,85.7792 96.8544,86.1572 C95.5314,86.5352 94.2084,86.7232 92.8864,86.7232 C90.9964,86.7232 89.4524,86.2182 88.2564,85.2122 C87.0604,84.2042 86.4614,82.8172 86.4614,81.0542 C86.4614,79.5432 86.9014,78.3302 87.7844,77.4182 C88.6654,76.5042 89.8944,76.0482 91.4694,76.0482 C92.8544,76.0482 94.0034,76.4402 94.9174,77.2282 C95.8294,78.0152 96.2874,79.1012 96.2874,80.4882 C96.2874,82.3782 95.4374,83.7952 93.7364,84.7392 C93.8614,84.8012 94.0514,84.8342 94.3034,84.8342 C97.7664,84.8342 100.4444,82.3782 102.3334,77.4652 L105.6414,68.8672 L88.5404,27.5812 C87.4684,25.4402 86.3984,24.0232 85.3274,23.3292 C84.2564,22.6362 83.1864,22.2902 82.1154,22.2902 L82.1154,20.3052 C84.8224,20.6832 87.9094,20.8732 91.3744,20.8732 C94.5234,20.8732 98.6164,20.6832 103.6564,20.3052 L103.6564,22.2902 C101.3894,22.2902 99.7354,22.4782 98.6964,22.8562 C97.6574,23.2342 97.1374,24.1482 97.1374,25.5962 C97.1374,26.9192 97.5154,28.4642 98.2714,30.2262 L109.6094,58.3812 L120.0964,31.0762 C120.7884,29.1862 121.1354,27.7382 121.1354,26.7302 C121.1354,25.2822 120.5684,24.2122 119.4344,23.5182 C118.3004,22.8262 116.5054,22.3852 114.0494,22.1952 L114.0494,20.3052 C117.3874,20.4952 120.0324,20.5902 121.9854,20.5902 L121.9854,20.5902 Z M60.5284,49.0682 L67.1594,31.8002 L73.4444,49.0682 L60.5284,49.0682 Z M33.1684,83.4592 C31.4034,83.4592 30.0974,83.2552 29.2474,82.8442 C28.3974,82.4352 27.8134,81.6962 27.4994,80.6252 C27.1834,79.5542 27.0264,77.8852 27.0264,75.6172 L27.0264,51.7152 L28.3494,51.7152 C33.5134,51.7152 37.2924,53.0062 39.6874,55.5882 C42.0794,58.1712 43.2764,61.9502 43.2764,66.9252 C43.2764,77.9482 39.9064,83.4592 33.1684,83.4592 L33.1684,83.4592 Z M27.0264,28.7562 C27.0264,26.4892 27.1524,24.7882 27.4044,23.6542 C27.6554,22.5202 28.1444,21.7342 28.8694,21.2932 C29.5924,20.8522 30.6794,20.6312 32.1284,20.6312 C34.4584,20.6312 36.1444,21.7812 37.1834,24.0802 C38.2224,26.3802 38.7424,29.9232 38.7424,34.7082 C38.7424,39.3702 38.0644,43.1022 36.7114,45.9042 C35.3554,48.7072 32.9794,50.1082 29.5774,50.1082 L27.0264,50.1082 L27.0264,28.7562 Z M98.1734,67.5802 C97.4844,67.5352 96.7804,67.1552 96.0684,66.4402 C95.3534,65.7272 94.6964,64.6342 94.0994,63.1592 L77.3824,20.0562 C75.9074,20.1492 74.7104,20.1942 73.7904,20.1942 C72.8234,20.1942 71.6034,20.1492 70.1304,20.0562 L56.2084,55.8632 C54.8844,55.0072 53.3694,54.2192 51.6384,53.5102 C47.6374,51.8722 42.5524,50.8962 36.3804,50.5812 L36.3804,50.3912 C41.1044,49.8252 45.1034,48.6602 48.3794,46.8962 C51.6524,45.1342 54.1094,43.0692 55.7484,40.7082 C57.3854,38.3452 58.2044,36.0002 58.2044,33.6692 C58.2044,29.1342 56.0154,25.5292 51.6384,22.8512 C47.2594,20.1752 40.9154,18.8362 32.6014,18.8362 C30.9624,18.8362 29.5144,18.8682 28.2554,18.9302 L17.3904,19.0252 C10.1464,19.0252 4.7304,18.9302 1.1404,18.7412 L1.1404,20.6312 C3.1554,20.7582 4.6034,21.0092 5.4854,21.3862 C6.3674,21.7642 6.9814,22.4902 7.3284,23.5592 C7.6734,24.6322 7.8484,26.3632 7.8484,28.7562 L7.8484,75.6172 C7.8484,78.0112 7.6904,79.7432 7.3754,80.8132 C7.0594,81.8852 6.4454,82.6082 5.5334,82.9862 C4.6194,83.3642 3.1554,83.6172 1.1404,83.7422 L1.1404,85.6322 C4.7304,85.4432 10.2104,85.3482 17.5794,85.3482 C21.6724,85.3482 25.8604,85.4122 30.1444,85.5372 C31.4034,85.6002 32.9464,85.6322 34.7744,85.6322 C43.8434,85.6322 50.8354,84.1202 55.7484,81.0962 C60.6604,78.0732 63.1174,73.4762 63.1174,67.3022 C63.1174,64.5952 62.2034,62.0282 60.3774,59.6032 C59.6414,58.6272 58.7204,57.7182 57.6324,56.8692 C57.9544,55.8472 58.3384,54.7512 58.8014,53.5582 L59.9764,50.4502 L73.9294,50.4502 L78.0034,61.7782 C78.5564,63.1592 78.8334,64.2642 78.8334,65.0932 C78.8334,65.9682 78.4644,66.5792 77.7284,66.9242 C76.9914,67.2692 75.7474,67.4882 73.9974,67.5802 L73.9974,68.9622 C76.4844,68.8242 80.3534,68.7552 85.6034,68.7552 C90.6674,68.7552 94.8594,68.8242 98.1734,68.9622 L98.1734,67.5802 Z"/>
</svg>
