<svg height='300px' width='300px'  fill="#D92426" xmlns="http://www.w3.org/2000/svg" xmlns:xlink="http://www.w3.org/1999/xlink" version="1.1" x="0px" y="0px" viewBox="0 0 100 100" enable-background="new 0 0 100 100" xml:space="preserve"><g><circle cx="50" cy="92.947" r="2"></circle></g><g><circle cx="54.745" cy="89.34" r="2"></circle></g><g><circle cx="59.191" cy="85.336" r="2"></circle></g><g><circle cx="63.591" cy="81.283" r="2"></circle></g><g><circle cx="67.891" cy="77.131" r="2"></circle></g><g><circle cx="71.943" cy="72.734" r="2"></circle></g><g><circle cx="75.896" cy="68.236" r="2"></circle></g><g><circle cx="79.652" cy="63.541" r="2"></circle></g><g><circle cx="83.063" cy="58.648" r="2"></circle></g><g><circle cx="86.275" cy="53.607" r="2"></circle></g><g><circle cx="89.093" cy="48.319" r="2"></circle></g><g><circle cx="91.516" cy="42.833" r="2"></circle></g><g><circle cx="93.244" cy="37.101" r="2"></circle></g><g><circle cx="94.084" cy="31.171" r="2"></circle></g><g><circle cx="93.441" cy="25.19" r="2"></circle></g><g><circle cx="91.415" cy="19.557" r="2"></circle></g><g><circle cx="88.057" cy="14.663" r="2"></circle></g><g><circle cx="83.705" cy="10.611" r="2"></circle></g><g><circle cx="78.418" cy="7.893" r="2"></circle></g><g><circle cx="72.536" cy="7.053" r="2"></circle></g><g><circle cx="66.605" cy="8.091" r="2"></circle></g><g><circle cx="61.27" cy="10.809" r="2"></circle></g><g><circle cx="56.622" cy="14.614" r="2"></circle></g><g><circle cx="53.51" cy="19.755" r="2"></circle></g><g><circle cx="50" cy="24.598" r="2"></circle></g><g><circle cx="45.256" cy="89.34" r="2"></circle></g><g><circle cx="40.808" cy="85.336" r="2"></circle></g><g><circle cx="36.41" cy="81.283" r="2"></circle></g><g><circle cx="32.11" cy="77.131" r="2"></circle></g><g><circle cx="28.057" cy="72.734" r="2"></circle></g><g><circle cx="24.104" cy="68.236" r="2"></circle></g><g><circle cx="20.348" cy="63.541" r="2"></circle></g><g><circle cx="16.937" cy="58.648" r="2"></circle></g><g><circle cx="13.725" cy="53.607" r="2"></circle></g><g><circle cx="10.908" cy="48.319" r="2"></circle></g><g><circle cx="8.486" cy="42.833" r="2"></circle></g><g><circle cx="6.756" cy="37.101" r="2"></circle></g><g><circle cx="5.916" cy="31.171" r="2"></circle></g><g><circle cx="6.559" cy="25.19" r="2"></circle></g><g><circle cx="8.585" cy="19.557" r="2"></circle></g><g><circle cx="11.946" cy="14.663" r="2"></circle></g><g><circle cx="16.295" cy="10.611" r="2"></circle></g><g><circle cx="21.583" cy="7.893" r="2"></circle></g><g><circle cx="27.464" cy="7.053" r="2"></circle></g><g><circle cx="33.395" cy="8.091" r="2"></circle></g><g><circle cx="38.732" cy="10.809" r="2"></circle></g><g><circle cx="43.377" cy="14.614" r="2"></circle></g><g><circle cx="46.49" cy="19.755" r="2"></circle></g></svg>