<svg xmlns="http://www.w3.org/2000/svg" viewBox="0 0 1321 59">
  <g fill="none" fill-rule="evenodd" stroke="#9FD2C5" stroke-width=".835">
    <path d="M0.02574,12.1714378 C67.04742,9.07066 166.7259,9.82979333 303.6957,23.8757267 C593.28786,53.5750156 772.53594,64.8558156 1005.35622,53.5750156 C1161.49902,46.0099044 1244.66694,28.1538822 1319.94918,14.5130822"/>
    <path d="M0.230076,0.549486667 C68.456916,0.444597778 155.992716,3.68959778 264.723756,13.74582 C585.807156,43.4451089 784.547676,54.72722 1042.68556,43.4451089 C1168.69144,37.9397533 1251.83428,26.9814867 1319.93968,16.1661311"/>
    <path d="M0.059268,5.94366 C65.042868,-0.159562222 187.796268,-4.84285111 379.688628,13.7460822 C686.258628,43.4453711 876.016548,54.7274822 1122.48563,43.4453711 C1204.52627,39.6903489 1267.53515,33.3996378 1319.94047,26.3497933"/>
  </g>
</svg>
